<?xml version="1.0" encoding="iso-8859-1"?>
<!-- Uploaded to: SVG Repo, www.svgrepo.com, Generator: SVG Repo Mixer Tools -->
<!DOCTYPE svg PUBLIC "-//W3C//DTD SVG 1.1//EN" "http://www.w3.org/Graphics/SVG/1.1/DTD/svg11.dtd">
<svg fill="#000000" version="1.1" id="Capa_1" xmlns="http://www.w3.org/2000/svg" xmlns:xlink="http://www.w3.org/1999/xlink" 
	 width="800px" height="800px" viewBox="0 0 124.095 124.095"
	 xml:space="preserve">
<g>
	<g>
		<path d="M90.344,57.176v8.78h20.109v-8.837c1.143,2.853,2.06,5.963,2.723,8.837h7.798c-1.46-7.102-5.473-21.526-14.501-25.491
			c-0.019-0.009-0.037-0.014-0.057-0.023c-1.094-0.717-2.319-1.252-3.57-1.559l-2.447,2.464l-2.373-2.491
			c-0.008,0.002-0.018,0.002-0.024,0.005c-1.283,0.306-2.54,0.857-3.657,1.609c-4.57,2.013-7.852,6.708-10.17,11.773
			c2.168,3.608,3.652,8.021,3.568,13.333C88.393,62.829,89.262,59.89,90.344,57.176z M100.378,41.711h0.045l2.369,15.837
			l-2.369,3.241h-0.045l-2.37-3.241L100.378,41.711z"/>
		<circle cx="100.4" cy="28.489" r="9.824"/>
		<path d="M12.458,57.176v8.78H27.89c0.399-4.853,1.719-12.078,5.865-17.169v-0.399c-3.152-2.921-5.717-6.27-7.624-9.141
			c-0.386-0.141-0.775-0.267-1.17-0.365l-2.447,2.464l-2.373-2.491c-0.008,0.002-0.017,0.002-0.025,0.005
			c-1.283,0.306-2.541,0.857-3.656,1.609C7.44,44.443,3.43,58.857,1.97,65.955h7.793C10.421,63.101,11.327,60.013,12.458,57.176z
			 M22.492,41.711h0.045l2.37,15.837l-2.37,3.241h-0.045l-2.37-3.241L22.492,41.711z"/>
		<path d="M22.514,38.314c0.957,0,1.879-0.143,2.753-0.398c-1.555-2.475-2.538-4.421-2.88-5.125
			c-0.891-1.833-1.014-3.902-0.347-5.829c0.667-1.926,2.043-3.477,3.877-4.365c1.048-0.508,2.167-0.766,3.326-0.766
			c0.173,0,0.341,0.025,0.513,0.037c-1.797-1.962-4.372-3.203-7.242-3.203c-5.426,0-9.823,4.399-9.823,9.824
			C12.691,33.914,17.088,38.314,22.514,38.314z"/>
		<circle cx="61.461" cy="27.255" r="12.13"/>
		<rect x="5.989" y="75.277" width="110.044" height="33.692"/>
		<path d="M84.518,69.091c2.51-15.991-10.371-23.91-15.216-26.879c-0.157-0.095-0.323-0.161-0.485-0.235
			c-1.33-0.875-2.817-1.515-4.334-1.889l-3.02,3.045l-2.93-3.076c-0.011,0-0.02,0-0.032,0.004c-1.451,0.345-2.878,0.95-4.168,1.761
			c-0.32,0.096-0.639,0.223-0.945,0.396c-1.878,1.056-3.665,1.262-5.621,0.653c-2.525-0.787-4.983-2.779-7.149-5.125l-3.945-5.021
			c-1.46-2.151-2.58-4.14-3.188-5.387c-1.136-2.339-3.955-3.313-6.294-2.178c-2.339,1.134-3.316,3.955-2.18,6.293
			c0.61,1.256,4.885,9.729,11.662,15.569v0.003c0.337-0.444,0.767-0.818,1.282-1.062l3.39-1.593
			c0.468-0.216,0.967-0.329,1.481-0.329c1.352,0,2.591,0.787,3.163,2.01c0.394,0.84,0.437,1.788,0.119,2.666
			c-0.316,0.876-0.954,1.576-1.796,1.97l-1.102,0.518c0.568,0.243,1.144,0.466,1.735,0.651c1.363,0.426,2.733,0.666,4.101,0.735
			V69.09H33.022c0.082-3.704,0.8-13.521,6.015-18.286c0.392,0.108,0.822,0.087,1.221-0.099l3.392-1.594
			c0.887-0.413,1.27-1.473,0.853-2.362c-0.416-0.887-1.474-1.268-2.362-0.851l-3.393,1.593c-0.538,0.25-0.885,0.737-0.988,1.28
			c-6.264,5.363-7.044,16.265-7.112,20.318H0v3.649h124.095v-3.649H84.518V69.091z M61.49,67.139h-0.056l-2.925-4.004l2.925-19.554
			h0.056l2.925,19.554L61.49,67.139z M74.908,69.091h-1.033V59.014C75.301,61.711,75.841,64.984,74.908,69.091z"/>
	</g>
</g>
</svg>