<?xml version="1.0" encoding="utf-8"?>
<!-- Uploaded to: SVG Repo, www.svgrepo.com, Generator: SVG Repo Mixer Tools -->
<svg fill="#000000" width="800px" height="800px" viewBox="0 0 32 32" version="1.1" xmlns="http://www.w3.org/2000/svg">
<title>screen-users</title>
<path d="M10.24 21c-0.001-1.997-1.619-3.615-3.616-3.615s-3.616 1.619-3.616 3.616 1.619 3.616 3.616 3.616v0c1.996-0.003 3.614-1.621 3.616-3.617v-0zM5.508 21c0.001-0.616 0.5-1.115 1.116-1.115s1.116 0.5 1.116 1.116-0.5 1.116-1.116 1.116c0 0 0 0-0 0v0c-0.616-0.001-1.115-0.501-1.116-1.117v-0zM19.617 21c-0-1.997-1.619-3.616-3.617-3.616s-3.617 1.619-3.617 3.617c0 1.997 1.619 3.616 3.616 3.617h0c1.997-0.003 3.615-1.62 3.617-3.617v-0zM14.884 21c0-0.617 0.5-1.116 1.117-1.116s1.117 0.5 1.117 1.117-0.5 1.117-1.117 1.117c-0 0-0 0-0.001 0h0c-0.616-0.001-1.115-0.501-1.116-1.117v-0zM28.992 21c-0.001-1.997-1.619-3.615-3.616-3.615s-3.616 1.619-3.616 3.616 1.619 3.616 3.616 3.616c0 0 0.001 0 0.001 0h-0c1.996-0.003 3.614-1.621 3.615-3.617v-0zM24.26 21c0.001-0.616 0.5-1.115 1.116-1.115s1.116 0.5 1.116 1.116c0 0.616-0.499 1.116-1.115 1.116h-0c-0.616-0.001-1.116-0.501-1.117-1.117v-0zM25.377 25.031c-1.9 0.012-3.589 0.906-4.679 2.293l-0.010 0.013c-1.093-1.408-2.786-2.306-4.688-2.306s-3.596 0.898-4.678 2.293l-0.010 0.013c-1.1-1.409-2.8-2.306-4.708-2.306-2.846 0-5.226 1.995-5.818 4.664l-0.007 0.040c-0.018 0.080-0.029 0.172-0.029 0.266 0 0.69 0.56 1.25 1.25 1.25 0.596 0 1.095-0.418 1.22-0.976l0.002-0.008c0.356-1.575 1.743-2.734 3.402-2.734s3.046 1.159 3.397 2.711l0.004 0.023c0.127 0.567 0.625 0.984 1.221 0.984h0c0.021 0 0.044-0.006 0.065-0.007 0.022 0.001 0.044 0.007 0.065 0.007 0.595-0 1.093-0.417 1.218-0.974l0.002-0.008c0.355-1.576 1.744-2.736 3.403-2.736s3.046 1.159 3.398 2.711l0.004 0.023c0.17 0.559 0.681 0.959 1.285 0.959s1.114-0.399 1.282-0.947l0.003-0.009c0.356-1.576 1.744-2.736 3.403-2.736s3.048 1.16 3.399 2.713l0.004 0.023c0.127 0.565 0.624 0.982 1.219 0.982h0c0.096-0 0.189-0.011 0.278-0.031l-0.008 0.002c0.566-0.126 0.982-0.624 0.982-1.219 0-0.095-0.011-0.188-0.031-0.277l0.002 0.008c-0.62-2.702-2.998-4.689-5.842-4.701h-0.001zM30 0.75h-28c-0.69 0-1.25 0.56-1.25 1.25v0 14c0 0.69 0.56 1.25 1.25 1.25s1.25-0.56 1.25-1.25v0-12.75h25.5v12.75c0 0.69 0.56 1.25 1.25 1.25s1.25-0.56 1.25-1.25v0-14c-0-0.69-0.56-1.25-1.25-1.25h-0z"></path>
</svg>